<?xml version="1.0" encoding="UTF-8" standalone="no"?>
<svg
   xmlns:dc="http://purl.org/dc/elements/1.1/"
   xmlns:cc="http://creativecommons.org/ns#"
   xmlns:rdf="http://www.w3.org/1999/02/22-rdf-syntax-ns#"
   xmlns:svg="http://www.w3.org/2000/svg"
   xmlns="http://www.w3.org/2000/svg"
   viewBox="0 0 5291.3335 5291.3335"
   height="5291.3335"
   width="5291.3335"
   xml:space="preserve"
   id="svg2"
   version="1.1"><metadata
     id="metadata8"><rdf:RDF><cc:Work
         rdf:about=""><dc:format>image/svg+xml</dc:format><dc:type
           rdf:resource="http://purl.org/dc/dcmitype/StillImage" /></cc:Work></rdf:RDF></metadata><defs
     id="defs6" /><g
     transform="matrix(1.3333333,0,0,-1.3333333,0,5291.3333)"
     id="g10"><g
       transform="scale(0.1)"
       id="g12"><g
         transform="scale(2.43466)"
         id="g14"><path
           id="path16"
           style="fill:#ffffff;fill-opacity:1;fill-rule:nonzero;stroke:none"
           d="M 16300,0 H 0 V 16300 H 16300 V 0" /></g><g
         transform="scale(1.9393)"
         id="g18"><path
           id="path20"
           style="fill:#5dc34b;fill-opacity:1;fill-rule:nonzero;stroke:none"
           d="m 16300,10231.8 c 0,-3351.38 -2716.8,-6068.24 -6068.2,-6068.24 -3351.43,0 -6068.22,2716.86 -6068.22,6068.24 0,3351.3 2716.79,6068.2 6068.22,6068.2 3351.4,0 6068.2,-2716.9 6068.2,-6068.2" /></g><g
         transform="scale(1.83843)"
         id="g22"><path
           id="path24"
           style="fill:#ffffff;fill-opacity:1;fill-rule:nonzero;stroke:none"
           d="m 15521.2,7969.03 c 494.4,825.82 778.8,1791.69 778.8,2824.17 0,3041.3 -2465.5,5506.8 -5506.8,5506.8 -3041.31,0 -5506.78,-2465.5 -5506.78,-5506.8 0,-1032.48 284.42,-1998.35 778.76,-2824.17 h 9456.02" /></g><path
         id="path26"
         style="fill:#ffffff;fill-opacity:1;fill-rule:nonzero;stroke:none"
         d="m 12861.7,12971 h 517.5 l 557.2,-1501 557.1,1501 h 505.4 l -861.6,-2146.4 h -414 l -861.6,2146.4" /><g
         transform="scale(1.0399)"
         id="g28"><path
           id="path30"
           style="fill:#ffffff;fill-opacity:1;fill-rule:nonzero;stroke:none"
           d="m 14739.6,12473.3 h 1545.7 v -401.2 h -1097.8 v -415.7 h 966 v -401.1 h -966 V 10825 H 16300 v -401.1 h -1560.4 v 2049.4" /></g><g
         transform="scale(1.18428)"
         id="g32"><path
           id="path34"
           style="fill:#ffffff;fill-opacity:1;fill-rule:nonzero;stroke:none"
           d="m 14585.4,10047.7 v 5.2 c 0,511.5 398.4,930.6 943.4,930.6 323.9,0 519.3,-87.4 706.9,-246.8 l -249.3,-300.8 c -138.8,115.7 -262.2,182.6 -470.4,182.6 -288,0 -516.8,-254.5 -516.8,-560.5 v -5.1 c 0,-329.07 226.2,-570.74 545.1,-570.74 143.9,0 272.5,35.98 372.7,108.01 v 257.03 h -398.5 v 342 h 781.5 v -781.59 c -185.1,-156.81 -439.6,-285.33 -768.7,-285.33 -560.4,0 -945.9,393.32 -945.9,925.42" /></g><g
         transform="scale(1.3393)"
         id="g36"><path
           id="path38"
           style="fill:#ffffff;fill-opacity:1;fill-rule:nonzero;stroke:none"
           d="m 15663.5,8759.72 -211.4,515.94 -211.4,-515.94 z m -368.2,936.54 h 322.8 L 16300,8093.63 h -366 l -145.5,356.9 h -672.9 l -145.4,-356.9 h -356.9 l 682,1602.63" /></g><g
         transform="scale(1.47564)"
         id="g40"><path
           id="path42"
           style="fill:#ffffff;fill-opacity:1;fill-rule:nonzero;stroke:none"
           d="m 15016.8,8790.06 h 292.9 l 676.7,-889.24 v 889.24 H 16300 V 7345.81 h -270.3 l -699.4,918.11 v -918.11 h -313.5 v 1444.25" /></g><g
         transform="scale(1.6402)"
         id="g44"><path
           id="path46"
           style="fill:#ffffff;fill-opacity:1;fill-rule:nonzero;stroke:none"
           d="m 16001.1,7254.8 v 3.72 c 0,222.72 -163.3,408.37 -393.5,408.37 -230.2,0 -389.8,-181.93 -389.8,-404.65 v -3.72 c 0,-222.78 163.3,-408.36 393.6,-408.36 230.1,0 389.7,181.86 389.7,404.64 z m -1082.1,0 v 3.72 c 0,369.35 291.4,671.93 692.4,671.93 400.8,0 688.6,-298.86 688.6,-668.21 v -3.72 c 0,-369.41 -291.4,-671.93 -692.4,-671.93 -400.9,0 -688.6,298.87 -688.6,668.21" /></g><g
         transform="scale(1.58575)"
         id="g48"><path
           id="path50"
           style="fill:#5dc34b;fill-opacity:1;fill-rule:nonzero;stroke:none"
           d="m 12211.2,10493 c 184.7,1006.4 379.7,4666.3 -3460.82,5807 l 3460.82,-5807" /></g><g
         transform="scale(1.58664)"
         id="g52"><path
           id="path54"
           style="fill:#5dc34b;fill-opacity:1;fill-rule:nonzero;stroke:none"
           d="m 8719.47,16298.6 c -1.51,0.5 -3.15,1 -4.66,1.4 0,0 -1465.92,-5128 3287.09,-6047.2 l -3282.43,6045.8" /></g><g
         transform="scale(1.61866)"
         id="g56"><path
           id="path58"
           style="fill:#5dc34b;fill-opacity:1;fill-rule:nonzero;stroke:none"
           d="m 12206.1,10537 c -141.4,1035.5 -169.9,4778.2 3801.2,5763 l -3801.2,-5763" /></g><g
         transform="scale(1.7176)"
         id="g60"><path
           id="path62"
           style="fill:#5dc34b;fill-opacity:1;fill-rule:nonzero;stroke:none"
           d="m 15110.7,15367.5 c 1.5,0.3 3,0.7 4.6,1.1 0,0 1184.7,-4997.3 -3427.7,-5672.72 l 3423.1,5671.62" /></g></g></g></svg>