<?xml version="1.0" encoding="UTF-8" standalone="no"?>
<!-- Created with Inkscape (http://www.inkscape.org/) -->
<svg xmlns:inkscape="http://www.inkscape.org/namespaces/inkscape" xmlns:rdf="http://www.w3.org/1999/02/22-rdf-syntax-ns#" xmlns="http://www.w3.org/2000/svg" xmlns:xlink="http://www.w3.org/1999/xlink" xmlns:ns1="http://sozi.baierouge.fr" xmlns:cc="http://creativecommons.org/ns#" xmlns:dc="http://purl.org/dc/elements/1.1/" xmlns:sodipodi="http://sodipodi.sourceforge.net/DTD/sodipodi-0.dtd" id="svg3251" sodipodi:docname="Nou document 9" viewBox="0 0 400 400" version="1.1" inkscape:version="0.48.0 r9654">
  <sodipodi:namedview id="base" bordercolor="#666666" inkscape:pageshadow="2" inkscape:window-y="15" pagecolor="#ffffff" inkscape:window-height="941" inkscape:window-maximized="0" inkscape:zoom="1.78" inkscape:window-x="17" showgrid="false" borderopacity="1.0" inkscape:current-layer="capa1" inkscape:cx="120.50562" inkscape:cy="200" inkscape:window-width="1353" inkscape:pageopacity="0.0" inkscape:document-units="mm"/>
  <g id="capa1" inkscape:label="Capa 1" inkscape:groupmode="layer" transform="translate(0 -652.36)">
    <path id="path3024" d="m113.46 931.47-29.241 29.242 8.2988 8.2975 41.314-41.314c22.021 9.9125 48.404 1.72 60.738-19.641-21.408-12.36-48.421-6.21-62.511 13.484l-0.61875-0.61875c9.7312-14.599 10.995-34.041 1.6288-50.262-21.386 12.348-29.572 38.776-19.608 60.812m32.481-26.065c22.778-13.151 30.581-42.276 17.431-65.052-22.778 13.15-30.581 42.275-17.431 65.052m108.34-155.96c-22.778 13.151-30.581 42.275-17.431 65.054 22.778-13.15 30.582-42.275 17.431-65.054m-33.856 85.135c22.778 13.15 51.902 5.3462 65.052-17.431-22.778-13.15-51.902-5.3462-65.052 17.431m89-98.866c-26.301 0-47.622 21.32-47.622 47.621 26.301 0 47.622-21.32 47.622-47.621m6.3575 51.13c-22.778-13.15-51.902-5.3462-65.052 17.43 22.778 13.151 51.901 5.3475 65.052-17.43m7.8875 166.3-87.428-87.426c7.6475-4.0462 14.285-10.224 18.93-18.27-12.83-7.4062-27.675-8.1662-40.544-3.3438l-2.8225-2.8225c18.649-14.332 24.25-40.612 12.17-61.536-18.24 10.531-26.879 31.308-22.842 50.864l-1.2875-1.2888c-0.6275-6.5925-2.6475-13.159-6.175-19.27-2.7688 1.6-5.3162 3.4325-7.6312 5.4638l-86.825-86.825-22.889 22.89 93.889 93.889c-1.23 9.9225 0.64125 20.31 6.025 29.635 5.0225-2.8988 9.3175-6.575 12.82-10.789l7.29 7.29c-14.734 1.4738-28.568 9.7788-36.535 23.581 18.024 10.405 40.022 7.69 54.935-5.1825l86.03 86.031 22.89-22.89zm48.515-100.78c0 95.098-77.09 172.19-172.19 172.19-95.098 0-172.19-77.09-172.19-172.19 0-95.098 77.09-172.19 172.19-172.19 95.098 0 172.19 77.09 172.19 172.19m14.375 0c0-103.04-83.526-186.56-186.56-186.56-103.04 0-186.56 83.525-186.56 186.56s83.525 186.56 186.56 186.56 186.56-83.525 186.56-186.56" style="fill:#000000" inkscape:connector-curvature="0"/>
  </g>
  <metadata>
    <rdf:RDF>
      <cc:Work>
        <dc:format>image/svg+xml</dc:format>
        <dc:type rdf:resource="http://purl.org/dc/dcmitype/StillImage"/>
        <cc:license rdf:resource="http://creativecommons.org/licenses/publicdomain/"/>
        <dc:publisher>
          <cc:Agent rdf:about="http://openclipart.org/">
            <dc:title>Openclipart</dc:title>
          </cc:Agent>
        </dc:publisher>
      </cc:Work>
      <cc:License rdf:about="http://creativecommons.org/licenses/publicdomain/">
        <cc:permits rdf:resource="http://creativecommons.org/ns#Reproduction"/>
        <cc:permits rdf:resource="http://creativecommons.org/ns#Distribution"/>
        <cc:permits rdf:resource="http://creativecommons.org/ns#DerivativeWorks"/>
      </cc:License>
    </rdf:RDF>
  </metadata>
</svg>
