<?xml version="1.0" standalone="no"?>
<!DOCTYPE svg PUBLIC "-//W3C//DTD SVG 20010904//EN"
 "http://www.w3.org/TR/2001/REC-SVG-20010904/DTD/svg10.dtd">
<svg version="1.0" xmlns="http://www.w3.org/2000/svg"
 width="4903.000000pt" height="4903.000000pt" viewBox="0 0 4903.000000 4903.000000"
 preserveAspectRatio="xMidYMid meet">

<g transform="translate(0.000000,4903.000000) scale(0.100000,-0.100000)"
fill="#000000" stroke="none">
<path d="M2 36868 c1 -6690 5 -12008 9 -11818 76 3654 961 7214 2605 10480
2362 4692 6195 8525 10884 10884 3270 1646 6826 2529 10480 2605 190 4 -5128
8 -11817 9 l-12163 2 2 -12162z"/>
<path d="M24895 49023 c261 -3 750 -21 1050 -38 4835 -280 9425 -1961 13300
-4874 968 -727 1812 -1465 2700 -2362 922 -931 1713 -1864 2467 -2909 2847
-3950 4439 -8609 4607 -13490 4 -124 9 5154 9 11728 l2 11952 -12157 -2
c-6687 -1 -12077 -4 -11978 -5z"/>
<path d="M24055 45599 c-2086 -42 -4173 -399 -6145 -1051 -1929 -637 -3756
-1549 -5420 -2706 -179 -124 -216 -151 -450 -322 -1364 -999 -2673 -2233
-3756 -3540 -384 -463 -765 -964 -1096 -1440 -2202 -3166 -3489 -6873 -3723
-10720 -51 -838 -51 -1792 0 -2620 202 -3278 1163 -6454 2806 -9275 l134 -230
18112 -3 18111 -2 130 222 c436 752 835 1546 1167 2323 962 2255 1517 4634
1655 7100 43 766 41 1654 -5 2440 -270 4589 -2030 8948 -5029 12450 -146 170
-320 369 -346 395 -3 3 -52 57 -110 120 -375 412 -1080 1112 -1455 1446 -258
229 -396 350 -456 399 -20 17 -101 84 -180 150 -1695 1417 -3688 2598 -5754
3410 -2606 1024 -5355 1513 -8190 1454z m13269 -7699 c374 -1885 513 -4144
380 -6155 -211 -3188 -1076 -5938 -2552 -8110 -312 -460 -658 -903 -1033
-1321 -193 -216 -715 -736 -929 -925 -883 -782 -1791 -1391 -2885 -1934 -1543
-766 -3210 -1267 -5259 -1581 -31 -5 -38 -3 -34 7 3 8 203 340 443 739 241
399 529 876 640 1060 318 528 791 1311 2435 4035 843 1397 1604 2657 1690
2800 86 143 473 784 860 1425 387 641 859 1424 1050 1740 191 316 1332 2206
2535 4200 1204 1994 2276 3771 2383 3950 108 179 200 328 206 332 15 10 19 -5
70 -262z m-242 121 c-327 -502 -12737 -19309 -12740 -19307 -6 7 -50 392 -71
631 -58 635 -75 1119 -68 1940 5 656 10 794 48 1320 182 2586 804 4991 1829
7080 1152 2347 2798 4274 4908 5745 1614 1125 3487 1980 5617 2565 241 66 528
142 547 144 4 1 -27 -52 -70 -118z m-24996 -1124 c45 -84 165 -305 266 -492
102 -187 214 -394 250 -460 36 -66 251 -462 478 -880 227 -418 454 -836 505
-930 51 -93 148 -273 217 -400 69 -126 398 -734 733 -1350 334 -616 663 -1221
730 -1345 67 -124 179 -328 247 -455 69 -126 241 -444 383 -705 266 -490 513
-946 665 -1225 48 -88 106 -196 130 -240 24 -44 53 -98 66 -120 12 -22 65
-119 117 -215 52 -96 236 -436 409 -755 173 -319 344 -634 380 -700 60 -111
3075 -5665 3464 -6380 1601 -2947 1721 -3170 1705 -3173 -19 -3 -407 77 -701
144 -2151 496 -3984 1282 -5515 2367 -439 311 -812 614 -1240 1007 -529 486
-1091 1126 -1540 1755 -1465 2050 -2312 4633 -2510 7655 -41 636 -54 1686 -27
2265 62 1325 198 2481 433 3675 99 503 243 1110 263 1110 6 0 48 -69 92 -153z
m279 42 c1923 -600 3634 -1428 5078 -2458 386 -275 916 -692 1142 -898 11 -10
56 -49 100 -88 385 -337 906 -860 1241 -1245 21 -25 42 -47 45 -50 3 -3 66
-77 140 -165 1479 -1751 2530 -3864 3123 -6275 565 -2300 704 -4943 385 -7305
-31 -232 -90 -589 -98 -598 -4 -4 -328 529 -718 1185 -391 656 -886 1486
-1099 1843 -213 358 -1316 2209 -2452 4115 -1136 1906 -2196 3686 -2357 3955
-328 551 -3586 6017 -4303 7220 -255 429 -473 795 -484 813 -11 17 -16 32 -12
32 5 0 125 -37 269 -81z"/>
<path d="M2 12158 l-2 -12158 11953 2 c6573 0 11849 5 11722 9 -2123 73 -4182
411 -6235 1024 -322 96 -1038 335 -1365 455 -2856 1051 -5490 2621 -7770 4634
-621 548 -1373 1289 -1930 1901 -2973 3269 -5005 7272 -5880 11584 -300 1483
-469 3047 -488 4526 -1 99 -4 -5291 -5 -11977z"/>
<path d="M49017 23653 c-8 -284 -21 -519 -48 -903 -288 -4079 -1591 -8007
-3797 -11450 -808 -1261 -1735 -2451 -2784 -3573 -208 -222 -863 -877 -1085
-1085 -1378 -1287 -2864 -2396 -4448 -3319 -3514 -2046 -7412 -3169 -11500
-3312 -121 -4 5156 -9 11728 -9 l11947 -2 0 11945 c0 6570 -2 11945 -3 11945
-2 0 -7 -107 -10 -237z"/>
</g>
</svg>
