<?xml version="1.0" encoding="utf-8"?>
<!-- Generator: Adobe Illustrator 24.1.0, SVG Export Plug-In . SVG Version: 6.00 Build 0)  -->
<svg version="1.1"
	 id="svg2" xmlns:cc="http://creativecommons.org/ns#" xmlns:dc="http://purl.org/dc/elements/1.1/" xmlns:rdf="http://www.w3.org/1999/02/22-rdf-syntax-ns#" xmlns:svg="http://www.w3.org/2000/svg"
	 xmlns="http://www.w3.org/2000/svg" xmlns:xlink="http://www.w3.org/1999/xlink" x="0px" y="0px" viewBox="0 0 3138.2 3138.2"
	 style="enable-background:new 0 0 3138.2 3138.2;" xml:space="preserve">
<style type="text/css">
	.st0{fill:#FFFFFF;}
	.st1{fill:#5DC34B;}
</style>
<g id="g10" transform="matrix(1.3333333,0,0,-1.3333333,0,5291.3333)">
	<g id="g12" transform="scale(0.1)">
		<g id="g14" transform="scale(2.43466)">
			<path id="path16" class="st0" d="M12983.6,3316.4h-16300v16300h16300V3316.4"/>
		</g>
		<g id="g18" transform="scale(1.9393)">
			<path id="path20" class="st1" d="M12136.4,14395.4c0-3351.4-2716.8-6068.2-6068.2-6068.2C2716.8,8327.1,0,11044,0,14395.4
				c0,3351.3,2716.8,6068.2,6068.2,6068.2C9419.6,20463.6,12136.4,17746.7,12136.4,14395.4"/>
		</g>
		<g id="g22" transform="scale(1.83843)">
			<path id="path24" class="st0" d="M11129.2,12361c494.4,825.8,778.8,1791.7,778.8,2824.2c0,3041.3-2465.5,5506.8-5506.8,5506.8
				c-3041.3,0-5506.8-2465.5-5506.8-5506.8c0-1032.5,284.4-1998.4,778.8-2824.2L11129.2,12361"/>
		</g>
		<path id="path26" class="st0" d="M4787.3,21045.4h517.5l557.2-1501l557.1,1501h505.4L6062.9,18899h-414L4787.3,21045.4"/>
		<g id="g28" transform="scale(1.0399)">
			<path id="path30" class="st0" d="M6975,20237.9h1545.7v-401.2H7422.9V19421h966v-401.1h-966v-430.3h1112.5v-401.1H6975V20237.9"
				/>
		</g>
		<g id="g32" transform="scale(1.18428)">
			<path id="path34" class="st0" d="M7767.4,16865.7v5.2c0,511.5,398.4,930.6,943.4,930.6c323.9,0,519.3-87.4,706.9-246.8
				l-249.3-300.8c-138.8,115.7-262.2,182.6-470.4,182.6c-288,0-516.8-254.5-516.8-560.5v-5.1c0-329.1,226.2-570.7,545.1-570.7
				c143.9,0,272.5,36,372.7,108v257h-398.5v342H9482v-781.6c-185.1-156.8-439.6-285.3-768.7-285.3
				C8152.9,15940.3,7767.4,16333.6,7767.4,16865.7"/>
		</g>
		<g id="g36" transform="scale(1.3393)">
			<path id="path38" class="st0" d="M9634.7,14788.6l-211.4,515.9l-211.4-515.9H9634.7z M9266.5,15725.1h322.8l681.9-1602.6h-366
				l-145.5,356.9h-672.9l-145.4-356.9h-356.9L9266.5,15725.1"/>
		</g>
		<g id="g40" transform="scale(1.47564)">
			<path id="path42" class="st0" d="M9545,14261.9h292.9l676.7-889.2v889.2h313.6v-1444.2h-270.3l-699.4,918.1v-918.1H9545V14261.9"
				/>
		</g>
		<g id="g44" transform="scale(1.6402)">
			<path id="path46" class="st0" d="M11078.3,12177.6v3.7c0,222.7-163.3,408.4-393.5,408.4s-389.8-181.9-389.8-404.7v-3.7
				c0-222.8,163.3-408.4,393.6-408.4C10918.7,11773,11078.3,11954.8,11078.3,12177.6L11078.3,12177.6z M9996.2,12177.6v3.7
				c0,369.3,291.4,671.9,692.4,671.9c400.8,0,688.6-298.9,688.6-668.2v-3.7c0-369.4-291.4-671.9-692.4-671.9
				C10283.9,11509.4,9996.2,11808.3,9996.2,12177.6"/>
		</g>
		<g id="g48" transform="scale(1.58575)">
			<path id="path50" class="st1" d="M7119.3,15584.9c184.7,1006.4,379.7,4666.3-3460.8,5807L7119.3,15584.9"/>
		</g>
		<g id="g52" transform="scale(1.58664)">
			<path id="path54" class="st1" d="M3630.5,21387.6c-1.5,0.5-3.2,1-4.7,1.4c0,0-1465.9-5128,3287.1-6047.2L3630.5,21387.6"/>
		</g>
		<g id="g56" transform="scale(1.61866)">
			<path id="path58" class="st1" d="M7217.8,15525.3c-141.4,1035.5-169.9,4778.2,3801.2,5763L7217.8,15525.3"/>
		</g>
		<g id="g60" transform="scale(1.7176)">
			<path id="path62" class="st1" d="M10409.7,20068.5c1.5,0.3,3,0.7,4.6,1.1c0,0,1184.7-4997.3-3427.7-5672.7L10409.7,20068.5"/>
		</g>
	</g>
</g>
</svg>
